<?xml version="1.0" encoding="UTF-8" standalone="no"?>
<svg
   xmlns:dc="http://purl.org/dc/elements/1.1/"
   xmlns:cc="http://creativecommons.org/ns#"
   xmlns:rdf="http://www.w3.org/1999/02/22-rdf-syntax-ns#"
   xmlns:svg="http://www.w3.org/2000/svg"
   xmlns="http://www.w3.org/2000/svg"
   xmlns:xlink="http://www.w3.org/1999/xlink"
   xmlns:sodipodi="http://sodipodi.sourceforge.net/DTD/sodipodi-0.dtd"
   xmlns:inkscape="http://www.inkscape.org/namespaces/inkscape"
   id="svg"
   version="1.1"
   width="280.02151"
   height="276.5834"
   viewBox="0 0 284.82734 290.17512"
   sodipodi:docname="logo.svg"
   inkscape:version="1.0.1 (3bc2e813f5, 2020-09-07)">
  <metadata
     id="metadata10">
    <rdf:RDF>
      <cc:Work
         rdf:about="">
        <dc:format>image/svg+xml</dc:format>
        <dc:type
           rdf:resource="http://purl.org/dc/dcmitype/StillImage" />
        <dc:title></dc:title>
      </cc:Work>
    </rdf:RDF>
  </metadata>
  <defs
     id="defs8">
    <linearGradient
       inkscape:collect="always"
       id="linearGradient3019">
      <stop
         style="stop-color:#32d232;stop-opacity:1"
         offset="0"
         id="stop3015" />
      <stop
         style="stop-color:#1e961e;stop-opacity:1"
         offset="1"
         id="stop3017" />
    </linearGradient>
    <rect
       x="65.027077"
       y="332.26917"
       width="0.96368742"
       height="145.54021"
       id="rect2997" />
    <rect
       x="372.38336"
       y="71.724655"
       width="643.86151"
       height="244.64639"
       id="rect2991" />
    <linearGradient
       inkscape:collect="always"
       xlink:href="#linearGradient3019"
       id="linearGradient2878"
       x1="55.445988"
       y1="186.47736"
       x2="271.92905"
       y2="186.47736"
       gradientUnits="userSpaceOnUse"
       gradientTransform="translate(2.5309096,7.0259482)" />
  </defs>
  <sodipodi:namedview
     pagecolor="#ffffff"
     bordercolor="#666666"
     borderopacity="1"
     objecttolerance="10"
     gridtolerance="10"
     guidetolerance="10"
     inkscape:pageopacity="0"
     inkscape:pageshadow="2"
     inkscape:window-width="1870"
     inkscape:window-height="1025"
     id="namedview6"
     showgrid="false"
     fit-margin-top="0"
     fit-margin-left="0"
     fit-margin-right="0"
     fit-margin-bottom="0"
     showguides="false"
     inkscape:zoom="0.5"
     inkscape:cx="975.93444"
     inkscape:cy="114.33112"
     inkscape:window-x="50"
     inkscape:window-y="27"
     inkscape:window-maximized="1"
     inkscape:current-layer="layer3"
     inkscape:document-rotation="0" />
  <g
     id="svgg"
     transform="translate(-62.976963,-49.36348)">
    <g
       inkscape:groupmode="layer"
       id="layer2"
       inkscape:label="BG" />
    <g
       inkscape:groupmode="layer"
       id="layer3"
       inkscape:label="Logo 2">
      <path
         id="path0"
         d="m 238.15691,49.858948 c 0,0.084 1.389,0.987 3.087,2.005 45.294,27.183 60.267,69.722002 39.94,113.472002 l -1.497,3.221 2.129,5.39 c 8.188,20.725 9.371,35.66 4.1,51.763 -0.964,2.944 -9.24,20.325 -9.528,20.011 -0.036,-0.039 0.615,-2.452 1.447,-5.362 2.428,-8.491 3.337,-14.254 3.73,-23.633 0.314,-7.483 0.097,-25.457 -0.301,-25.058 -0.095,0.095 -0.77,2.518 -1.499,5.384 -4.395,17.285 -12.898,32.183 -23.857,41.802 -1.324,1.162 -4.73208,4.09123 -4.99908,4.34323 -0.407,0.385 2.41708,-0.51623 6.51708,3.56877 15.61293,15.56204 15.16817,28.13585 15.611,48.725 -2.87,14.967 -39.34347,35.5381 -51.80547,42.2691 -3.51,1.896 10.28266,-0.0913 21.00469,-2.99229 29.02683,-7.15625 51.86756,-22.79555 68.71111,-39.87154 9.784,-9.591 24.77273,-31.79443 23.64873,-32.91943 -0.07,-0.07 -3.72006,1.23616 -6.54706,2.18716 -13.372,4.498 -30.721,7.52 -45.8,7.978 l -5.82,0.177 8.113,-2.093 c 27.609,-7.121 50.66849,-15.48593 56.45549,-21.19893 3.31719,-7.94989 8.87845,-22.32892 10.85945,-44.18492 0.482,-5.324 0.58175,-19.88584 0.15475,-23.65384 l -0.5864,-4.58541 -1.94929,3.8211 c -9.696,18.781 -27.581,35.873 -42.898,40.997 l -1.225,0.41 1.055,-0.789 c 16.189,-12.105 29.614,-30.107 37.679,-50.524 3.358,-8.501 4.187,-11.768 3.749,-14.764 -2.379,-16.245 -7.35427,-23.36254 -15.73727,-37.77454 -1.884,-3.239 -8.15195,-12.48778 -8.41695,-12.48778 -0.129,0 0.85515,0.25714 0.74115,4.76714 -0.593,23.503 -7.61393,40.20918 -18.01493,52.49918 l -0.895,1.058 1.027,-2.293 c 8.066,-18.001 9.57457,-45.17472 3.82357,-69.851723 -0.711,-3.048 -1.58352,-3.48658 -4.10452,-5.87658 -11.02,-10.446 -26.82005,-21.932699 -45.41505,-29.334699 -10.519,-4.188 -22.687,-7.728 -22.687,-6.601 m -62.434,104.704002 c 0,0.117 -0.247,1.373 -0.549,2.793 -5.06968,16.6354 4.63728,31.06214 21.42782,43.99818 l 3.03918,1.78382 0.20564,-2.15595 c 0.28845,-1.9827 0.1932,-6.06972 -0.3078,-6.35072 -3.263,-1.826 -12.4097,-8.29606 -15.9147,-13.22906 -5.79244,-8.18582 -7.81219,-17.47941 -7.94214,-24.61227 0.216,-1.148 0.313,-2.167 0.217,-2.263 -0.097,-0.097 0.74953,-1.74742 0.74953,-1.63142 m -2.50253,98.92742 c 0.24397,1.48781 -0.58229,5.70243 7.943,10.955 2.745,3.361 4.59731,7.99479 5.71331,9.46179 17.52971,26.88723 14.84815,42.93393 -11.82556,52.83898 -6.41,2.135 -5.00593,3.25072 2.04007,1.20772 38.02794,-9.82569 41.67511,-28.10541 16.2591,-53.01164 -7.9663,-8.29001 -12.14353,-15.05713 -18.87592,-20.21685 -0.883,-1.231 -1.408,-1.748 -1.254,-1.235"
         stroke="none"
         fill="#3c0404"
         fill-rule="evenodd"
         sodipodi:nodetypes="ccccccccccccccccccsccccccccccccscssccccccccccccccccsccccccccc"
         style="fill:#0a780a;fill-opacity:1" />
      <text
         xml:space="preserve"
         id="text2995"
         style="font-style:normal;font-weight:normal;font-size:41.9657px;line-height:1.25;font-family:sans-serif;white-space:pre;shape-inside:url(#rect2997);fill:#000000;fill-opacity:1;stroke:none;" />
    </g>
    <g
       id="g2908" />
    <g
       inkscape:groupmode="layer"
       id="layer1"
       inkscape:label="Logo">
      <path
         id="path1"
         d="m 164.96491,51.284948 c -23.40878,6.500324 -45.96636,20.3986 -60.88717,34.943433 l -3.42427,3.470208 -0.72556,3.041359 c -4.977,25.561002 -3.354,50.260002 4.53,68.960002 l 0.744,1.763 -0.902,-1.058 c -10.137,-11.9 -16.497587,-28.40132 -17.007587,-51.43032 -0.104,-4.705 0.0013,-5.61645 -0.128942,-5.42922 -0.267733,0.38474 -4.497421,5.82741 -8.099488,12.2562 -3.517971,5.88738 -10.820789,17.76539 -16.130433,39.28314 l -0.210534,0.8532 0.839984,3.038 c 6.133,21.62 21.098,44.299 38.168,57.847 4.018,3.189 3.708,3.26 -1.932,0.445 -16.335,-8.152 -31.602804,-26.23282 -40.261804,-43.52582 -0.42021,3.41258 -0.738754,7.83794 -0.775716,9.53331 -1.646696,25.45059 4.740951,48.79517 11.655921,65.12117 6.181,5.707 28.064599,12.55134 55.205599,19.63334 l 8.654,2.258 -5.996,-0.175 c -14.525,-0.424 -32.012653,-3.272 -45.404653,-7.737 -2.813,-0.938 -6.364441,-1.85774 -6.636418,-1.91426 2.422921,5.09886 12.087839,20.71781 21.806095,30.33878 28.242796,30.19108 64.947976,45.07993 102.945246,46.72742 47.12227,0.47686 77.58396,-14.9221 73.16573,-52.07894 2.339,-24.378 -8.232,-38.093 -53.826,-69.837 -21.88,-15.232 -25.109,-17.634 -30.009,-22.319 -12.464,-11.914 -17.826,-25.366 -15.139,-37.983 0.613,-2.878 1.094,-3.935 0.645,-1.417 -2.304,12.92 4.923,27.11 20.326,39.906 4.06,3.373 1.38499,1.16806 3.84395,3.18946 1.434,-18.834 6.91905,-29.06546 26.39905,-36.78746 10.284,-4.077 13.223,-5.755 18.815,-10.744 11.683,-10.423 15.887,-12.936 20.699,-12.37 3.359,0.395 4.755,1.491 5.761,4.526 l 0.616,1.861 0.262,-1.345 c 0.397,-2.041 -0.025,-9.002 -0.671,-11.054 -2.969,-9.435 -14.652,-11.687 -28.407,-5.476 -5.881,2.656 -6.991,2.663 -15.191,0.095 -10.535,-3.298 -10.869,-3.365 -16.755,-3.363 -12.94,0.005 -28.353,5.178 -45.739,15.35 -13.971,8.174 -19.248,9.707 -27.271,7.922 -3.513,-0.782 -3.536,-0.651 -0.231,1.347 13.134,7.94 23.245,7.537 38.524,-1.536 l 3.512,-2.085 -1.034,1.484 c -0.569,0.815 -2.992,3.471 -5.385,5.901 -12.062,12.247 -17.579,25.969 -17.579,43.724 0,17.125 6.461,37.732 16.733,53.366 l 0.644,0.979 -0.889,-0.338 c -18.223,-6.928 -34.68,-27.5 -41.058,-51.323 -2.354,-8.791 -2.083,-8.51 -2.405,-2.502 -0.946,17.657 0.432,32.566 4.188,45.316 0.484,1.643 0.835,3.032 0.78,3.088 -0.319,0.318 -7.798,-15.207 -8.972,-18.625 -3.461,-10.069 -4.237,-20.066 -2.521,-32.441 0.522,-3.768 4.824,-16.872 7.628,-23.237 l 0.843,-1.913 -1.749,-3.933 c -19.821,-44.584 -1.54892,-81.933765 40.799,-113.393002 1.26203,-0.937533 2.77281,-2.136049 2.69995,-2.118273 -1.23551,0.301423 -3.18215,0.703694 -8.07895,1.921273 m 14.792,207.416002 c 4.492,5.585 7.317,8.725 13.963,15.521 24.234,24.777 19.217,41.015 -15.808,51.169 -7.046,2.043 -7.541,1.97 -1.131,-0.165 29.123,-9.704 32.987,-26.527 12.329,-53.671 -1.116,-1.467 -4.276,-5.416 -7.021,-8.777 -2.746,-3.36 -5.596,-7.002 -6.335,-8.091 -1.907,-2.815 -2.212,-4.218 -0.354,-1.629 0.836,1.164 2.796,3.703 4.357,5.643"
         stroke="none"
         fill="#d40409"
         fill-rule="evenodd"
         sodipodi:nodetypes="ccccccccscsccsccccccscccccccccccccccccccccscsccccsccsccsccccccsscccccccccc"
         style="opacity:1;fill:url(#linearGradient2878);fill-opacity:1" />
    </g>
  </g>
</svg>
